<?xml version="1.0" encoding="UTF-8"?>
<svg id="Capa_1" xmlns="http://www.w3.org/2000/svg" version="1.1" viewBox="0 0 582.4 63.3">
  <!-- Generator: Adobe Illustrator 29.5.1, SVG Export Plug-In . SVG Version: 2.1.0 Build 141)  -->
  <defs>
    <style>
      .st0 {
        fill: #222221;
      }
    </style>
  </defs>
  <path class="st0" d="M1.3,62.6c-.9,0-1.3-.3-1.3-.9s.4-.9,1.2-1.1l1.3-.3c1.1-.2,2-.8,2.6-1.7.6-.9,1-2.1,1.4-3.7L19.7,1.8c.1-.6.3-.9.6-1.1.3-.2.5-.3.7-.3s.6,0,.8.3.4.5.6,1.1l13.4,54c.4,1.6.9,2.7,1.4,3.3.5.6,1.3,1.1,2.4,1.3l1.3.3c.8.2,1.2.5,1.2,1.1s-.4.9-1.3.9h-14.6c-.8,0-1.2-.3-1.2-.9s.5-1,1.4-1l1.6-.2c1-.1,1.6-.4,1.8-.9.3-.5.2-1.4,0-2.6l-3.2-13.2c-.3-1.5-1.3-2.2-2.8-2.2h-8.9c-1.5,0-2.4.7-2.8,2.2l-2.9,11.4c-.9,3.2,0,5,2.6,5.4l1.3.2c1,.2,1.4.5,1.4,1s-.4.9-1.2.9H1.3ZM14.6,38.9h9.4c.9,0,1.3-.5,1.1-1.4l-5.4-22.8h-.4l-5.7,22.8c-.2,1,.2,1.4,1.1,1.4Z"/>
  <path class="st0" d="M38.2,62.6c-.9,0-1.3-.3-1.3-.9s.4-.9,1.1-1l2-.3c1.2-.2,2-.5,2.3-.9.4-.4.6-1.2.6-2.4V6.9c0-1.2-.2-2-.6-2.4-.4-.4-1.1-.7-2.3-.9l-2-.3c-.7-.2-1.1-.5-1.1-1s.4-.9,1.3-.9h15.6c.9,0,1.3.3,1.3,1s-.3.8-.9.9l-2.3.3c-1.2.2-2,.5-2.3.9-.4.5-.6,1.3-.6,2.5v47.7c0,2,.6,3.5,1.7,4.4,1.2.9,2.6,1.4,4.4,1.4s2.7-.3,4-.8c1.4-.5,2.7-1.6,3.8-3.1,1.1-1.5,2-3.7,2.6-6.6l1.1-5.7c.2-.7.6-1.1,1.3-1.1s1.1.5,1,1.4l-1,16c-.1,1.3-.8,2-2.1,2h-27.5Z"/>
  <path class="st0" d="M88,63.3c-2.7,0-5.3-.8-7.7-2.4-2.4-1.6-4.5-3.8-6.3-6.7-1.8-2.8-3.2-6.2-4.2-10-1-3.8-1.5-8-1.5-12.4s.5-8.5,1.5-12.3c1-3.8,2.4-7.1,4.2-10,1.8-2.9,3.9-5.1,6.3-6.7,2.4-1.6,4.9-2.4,7.7-2.4s5.3.8,7.6,2.4c2.4,1.6,4.4,3.8,6.3,6.7,1.8,2.9,3.2,6.2,4.2,10,1,3.8,1.5,7.9,1.5,12.3s-.5,8.6-1.5,12.4c-1,3.8-2.4,7.2-4.2,10-1.8,2.8-3.9,5.1-6.3,6.7-2.4,1.6-4.9,2.4-7.6,2.4ZM88,61c4,0,7.2-2.4,9.4-7.2,2.3-4.8,3.4-12.1,3.4-22s-1.1-17.1-3.4-21.9c-2.3-4.8-5.4-7.2-9.4-7.2s-7.1,2.4-9.4,7.2c-2.3,4.8-3.4,12.1-3.4,21.9s1.1,17.1,3.4,22c2.3,4.8,5.4,7.2,9.4,7.2Z"/>
  <path class="st0" d="M142.5,63.3c-.9,0-1.7-.7-2.3-2l-23.1-50c-.2-.4-.4-.6-.6-.5-.3,0-.4.3-.4.8v43.7c0,1.6.3,2.8.8,3.6.5.8,1.5,1.3,2.9,1.6l1.1.2c.7,0,1.1.4,1.1,1s-.4.9-1.3.9h-12.2c-.9,0-1.3-.3-1.3-.9s.4-1,1.1-1l1.1-.2c1.5-.2,2.5-.8,3.1-1.6.6-.8.9-2,.9-3.6V6.9c0-1.2-.2-2-.6-2.4-.4-.4-1.2-.7-2.5-.9l-2-.3c-.7-.2-1.1-.5-1.1-1s.4-.9,1.3-.9h9.1c1.4,0,2.4.6,3,1.9l20.1,44.2c.2.3.4.5.6.4.3,0,.4-.3.4-.6V8.6c0-1.8-.3-3.1-.9-3.8-.6-.7-1.4-1.1-2.4-1.3l-1.5-.3c-.7-.2-1.1-.5-1.1-1s.4-.9,1.3-.9h12.2c.9,0,1.3.3,1.3.9s-.4,1-1.1,1l-1.1.2c-1.5.2-2.5.7-3.1,1.4-.6.7-.9,2-.9,3.8v52c0,1-.2,1.7-.6,2.1-.4.4-.8.6-1.4.6Z"/>
  <path class="st0" d="M163.4,63.3c-1.1,0-2.4-.1-3.8-.3-1.4-.2-2.7-.5-3.9-.9-1.2-.3-2.2-.7-2.9-1.1-.4-.2-.7-.5-.9-.7-.2-.3-.3-.7-.3-1.3l-.4-13.4c0-1.1.4-1.7,1.1-1.7s1,.5,1.3,1.5l.8,3.2c1.9,8.1,5.5,12.2,10.8,12.2s5.1-.9,6.8-2.9c1.7-1.9,2.5-4.6,2.5-8s-.9-6.5-2.6-9.4c-1.7-2.9-4.5-5.8-8.3-8.6-4.2-3-7.3-5.9-9.2-8.7-1.9-2.8-2.9-5.8-2.9-9s1.5-7.6,4.4-10.1c2.9-2.5,6.7-3.8,11.2-3.8s3.3.2,4.9.6c1.6.4,2.9,1,3.9,1.7.3.2.6.5.8.8.2.3.3.7.3,1.1l.3,12.9c0,1-.4,1.4-1.1,1.4s-.9-.4-1.1-1.2l-.6-2.1c-1.2-4.4-2.5-7.6-3.9-9.6-1.3-2-3.2-3-5.7-3s-4.4.8-5.8,2.4c-1.4,1.6-2.2,3.8-2.2,6.7s.8,4.8,2.4,7c1.6,2.2,4.4,4.9,8.3,8.1,4.3,3.5,7.4,6.8,9.3,10,2,3.2,2.9,6.6,2.9,10.3s-.7,6-2.1,8.3c-1.4,2.4-3.4,4.2-5.8,5.6-2.5,1.3-5.3,2-8.5,2Z"/>
  <path class="st0" d="M201.1,63.3c-2.7,0-5.3-.8-7.7-2.4-2.4-1.6-4.5-3.8-6.3-6.7-1.8-2.8-3.2-6.2-4.2-10-1-3.8-1.5-8-1.5-12.4s.5-8.5,1.5-12.3c1-3.8,2.4-7.1,4.2-10,1.8-2.9,3.9-5.1,6.3-6.7,2.4-1.6,4.9-2.4,7.7-2.4s5.3.8,7.6,2.4c2.4,1.6,4.4,3.8,6.3,6.7,1.8,2.9,3.2,6.2,4.2,10,1,3.8,1.5,7.9,1.5,12.3s-.5,8.6-1.5,12.4c-1,3.8-2.4,7.2-4.2,10-1.8,2.8-3.9,5.1-6.3,6.7-2.4,1.6-4.9,2.4-7.6,2.4ZM201.1,61c4,0,7.2-2.4,9.4-7.2,2.3-4.8,3.4-12.1,3.4-22s-1.1-17.1-3.4-21.9c-2.3-4.8-5.4-7.2-9.4-7.2s-7.1,2.4-9.4,7.2c-2.3,4.8-3.4,12.1-3.4,21.9s1.1,17.1,3.4,22c2.3,4.8,5.4,7.2,9.4,7.2Z"/>
  <path class="st0" d="M245.7,63.3c-1.1,0-2.4-.1-3.8-.3-1.4-.2-2.7-.5-3.9-.9-1.2-.3-2.2-.7-2.9-1.1-.4-.2-.7-.5-.9-.7-.2-.3-.3-.7-.3-1.3l-.4-13.4c0-1.1.4-1.7,1.1-1.7s1,.5,1.3,1.5l.8,3.2c1.9,8.1,5.5,12.2,10.8,12.2s5.1-.9,6.8-2.9c1.7-1.9,2.5-4.6,2.5-8s-.9-6.5-2.6-9.4c-1.7-2.9-4.5-5.8-8.3-8.6-4.2-3-7.3-5.9-9.2-8.7s-2.9-5.8-2.9-9,1.5-7.6,4.4-10.1c2.9-2.5,6.7-3.8,11.2-3.8s3.3.2,4.9.6c1.6.4,2.9,1,3.9,1.7.3.2.6.5.8.8.2.3.3.7.3,1.1l.3,12.9c0,1-.4,1.4-1.1,1.4s-.9-.4-1.1-1.2l-.6-2.1c-1.2-4.4-2.5-7.6-3.9-9.6-1.3-2-3.2-3-5.7-3s-4.4.8-5.8,2.4c-1.4,1.6-2.2,3.8-2.2,6.7s.8,4.8,2.4,7c1.6,2.2,4.4,4.9,8.3,8.1,4.3,3.5,7.4,6.8,9.3,10,2,3.2,2.9,6.6,2.9,10.3s-.7,6-2.1,8.3c-1.4,2.4-3.4,4.2-5.8,5.6s-5.3,2-8.5,2Z"/>
  <path class="st0" d="M260.2,62.6c-.9,0-1.3-.3-1.3-.9s.4-.9,1.2-1.1l1.3-.3c1.1-.2,2-.8,2.6-1.7.6-.9,1-2.1,1.4-3.7l13.2-53.2c.1-.6.3-.9.6-1.1.3-.2.5-.3.7-.3s.6,0,.8.3c.3.2.4.5.6,1.1l13.4,54c.4,1.6.9,2.7,1.4,3.3.5.6,1.3,1.1,2.4,1.3l1.3.3c.8.2,1.2.5,1.2,1.1s-.4.9-1.3.9h-14.6c-.8,0-1.2-.3-1.2-.9s.5-1,1.4-1l1.6-.2c1-.1,1.6-.4,1.8-.9.3-.5.2-1.4,0-2.6l-3.2-13.2c-.3-1.5-1.3-2.2-2.8-2.2h-8.9c-1.5,0-2.4.7-2.8,2.2l-2.9,11.4c-.9,3.2,0,5,2.6,5.4l1.3.2c1,.2,1.4.5,1.4,1s-.4.9-1.2.9h-11.9ZM273.4,38.9h9.4c.9,0,1.3-.5,1.1-1.4l-5.4-22.8h-.4l-5.7,22.8c-.2,1,.2,1.4,1.1,1.4Z"/>
  <path class="st0" d="M330.7,63.3c-.9,0-1.7-.7-2.3-2l-23.1-50c-.2-.4-.4-.6-.6-.5-.3,0-.4.3-.4.8v43.7c0,1.6.3,2.8.8,3.6.5.8,1.5,1.3,2.9,1.6l1.1.2c.7,0,1.1.4,1.1,1s-.4.9-1.3.9h-12.2c-.9,0-1.3-.3-1.3-.9s.4-1,1.1-1l1.1-.2c1.5-.2,2.5-.8,3.1-1.6.6-.8.9-2,.9-3.6V6.9c0-1.2-.2-2-.6-2.4-.4-.4-1.2-.7-2.5-.9l-2-.3c-.7-.2-1.1-.5-1.1-1s.4-.9,1.3-.9h9.1c1.4,0,2.4.6,3,1.9l20.1,44.2c.2.3.4.5.6.4.3,0,.4-.3.4-.6V8.6c0-1.8-.3-3.1-.9-3.8-.6-.7-1.4-1.1-2.4-1.3l-1.5-.3c-.7-.2-1.1-.5-1.1-1s.4-.9,1.3-.9h12.2c.9,0,1.3.3,1.3.9s-.4,1-1.1,1l-1.1.2c-1.5.2-2.5.7-3.1,1.4-.6.7-.9,2-.9,3.8v52c0,1-.2,1.7-.6,2.1-.4.4-.8.6-1.4.6Z"/>
  <path class="st0" d="M345.9,62.6c-.9,0-1.3-.3-1.3-.9s.4-1,1.1-1l3.8-.6c1.1-.2,1.9-.5,2.3-.9.4-.4.6-1.2.6-2.4V5.6c0-.8-.2-1.4-.5-1.7-.3-.3-1.1-.5-2.1-.5-2.1,0-4.2.9-6.2,2.7-2,1.8-3.4,4.7-4,8.8l-.4,2.8c-.1.7-.5,1.1-1.2,1.1s-1.2-.5-1.1-1.4l.8-15.4c.1-1.3.6-2,1.5-2s.8,0,1.1.3c.3.2.9.4,1.7.6.8.2,2.1.3,4,.3h19c1.8,0,3.1-.1,4-.3.8-.2,1.4-.4,1.8-.6.4-.2.7-.3,1.1-.3.9,0,1.4.7,1.5,2l.8,15.4c.1,1-.3,1.4-1.1,1.4s-1.1-.4-1.2-1.1l-.4-2.8c-.6-4-1.9-6.9-3.9-8.8-2-1.8-4.1-2.7-6.3-2.7s-1.8.2-2.1.5-.5.9-.5,1.7v51.1c0,1.2.2,2,.6,2.4.4.4,1.2.7,2.3.9l3.8.6c.7,0,1.1.4,1.1,1s-.4.9-1.3.9h-19.1Z"/>
  <path class="st0" d="M367.1,62.6c-.9,0-1.3-.3-1.3-.9s.4-.9,1.2-1.1l1.3-.3c1.1-.2,2-.8,2.6-1.7.6-.9,1-2.1,1.4-3.7l13.2-53.2c.1-.6.3-.9.6-1.1.3-.2.5-.3.7-.3s.6,0,.8.3c.3.2.4.5.6,1.1l13.4,54c.4,1.6.9,2.7,1.4,3.3.5.6,1.3,1.1,2.4,1.3l1.3.3c.8.2,1.2.5,1.2,1.1s-.4.9-1.3.9h-14.6c-.8,0-1.2-.3-1.2-.9s.5-1,1.4-1l1.6-.2c1-.1,1.6-.4,1.8-.9.3-.5.2-1.4,0-2.6l-3.2-13.2c-.3-1.5-1.3-2.2-2.8-2.2h-8.9c-1.5,0-2.4.7-2.8,2.2l-2.9,11.4c-.9,3.2,0,5,2.6,5.4l1.3.2c1,.2,1.4.5,1.4,1s-.4.9-1.2.9h-11.9ZM380.3,38.9h9.4c.9,0,1.3-.5,1.1-1.4l-5.4-22.8h-.4l-5.7,22.8c-.2,1,.2,1.4,1.1,1.4Z"/>
  <path class="st0" d="M428.8,61.7c-.2,0-.5,0-.8-.3-.3-.2-.5-.5-.6-1.1l-12.9-52.2c0-.4-.2-.6-.5-.6-.3,0-.4.2-.4.6l-1.7,47c0,1.6.2,2.8.8,3.6.6.8,1.6,1.3,3,1.6l1.1.2c.7,0,1.1.4,1.1,1s-.4.9-1.3.9h-12.2c-.9,0-1.3-.3-1.3-.9s.4-1,1.1-1l1.1-.2c1.5-.2,2.5-.8,3-1.6.5-.8.8-2,.9-3.6l1.7-48.3c0-1.2-.1-2-.5-2.4-.4-.4-1.2-.7-2.6-.9l-2-.3c-.7-.2-1.1-.5-1.1-1s.4-.9,1.3-.9h10.2c1.8,0,2.8.9,3.2,2.6l10.3,42.5c.1.4.3.6.6.6s.4-.2.5-.6l10.7-42.9c.3-1.4,1.2-2.1,2.7-2.1h10c.9,0,1.3.3,1.3.9s-.4.9-1.1,1l-2,.3c-1.2.2-2,.5-2.4.9-.4.4-.6,1.2-.5,2.4l1.7,50c0,1.2.3,2,.6,2.4.3.4,1.1.7,2.3.9l2,.3c.7.2,1.1.5,1.1,1s-.4.9-1.3.9h-15.4c-.9,0-1.3-.3-1.3-.9s.4-.9,1.1-1l2-.3c1.2-.2,2-.5,2.4-.9s.6-1.2.5-2.4l-1.4-48.7c0-.4-.1-.6-.4-.6-.3,0-.4.1-.6.5l-12.9,52.3c-.1.6-.3.9-.6,1.1-.3.2-.5.3-.7.3Z"/>
  <path class="st0" d="M454,62.6c-.9,0-1.3-.3-1.3-.9s.4-.9,1.2-1.1l1.3-.3c1.1-.2,2-.8,2.6-1.7.6-.9,1-2.1,1.4-3.7l13.2-53.2c.1-.6.3-.9.6-1.1.3-.2.5-.3.7-.3s.6,0,.8.3c.3.2.4.5.6,1.1l13.4,54c.4,1.6.9,2.7,1.4,3.3.5.6,1.3,1.1,2.4,1.3l1.3.3c.8.2,1.2.5,1.2,1.1s-.4.9-1.3.9h-14.6c-.8,0-1.2-.3-1.2-.9s.5-1,1.4-1l1.6-.2c1-.1,1.6-.4,1.8-.9.3-.5.2-1.4,0-2.6l-3.2-13.2c-.3-1.5-1.3-2.2-2.8-2.2h-8.9c-1.5,0-2.4.7-2.8,2.2l-2.9,11.4c-.9,3.2,0,5,2.6,5.4l1.3.2c1,.2,1.4.5,1.4,1s-.4.9-1.2.9h-11.9ZM467.3,38.9h9.4c.9,0,1.3-.5,1.1-1.4l-5.4-22.8h-.4l-5.7,22.8c-.2,1,.2,1.4,1.1,1.4Z"/>
  <path class="st0" d="M526.4,63.3c-4.9,0-8.1-3.2-9.4-9.7l-2-9.4c-.6-3.1-1.3-5.4-2.1-7-.8-1.6-1.8-2.7-3.1-3.2-1.3-.6-3.2-.9-5.5-.9s-1.4.2-1.9.6c-.5.4-.7,1-.7,1.6v21.3c0,1.2.2,2,.7,2.4.5.4,1.5.8,3.1,1.1l3.1.5c.6.1.9.4.9.9s-.4,1-1.3,1h-17.3c-.9,0-1.3-.3-1.3-.9s.4-.9,1.1-1l2-.3c1.2-.2,2-.5,2.3-.9.4-.4.6-1.2.6-2.4V6.9c0-1.2-.2-2-.6-2.4-.4-.4-1.1-.7-2.3-.9l-2-.3c-.7-.2-1.1-.5-1.1-1s.4-.9,1.3-.9h17.3c3.3,0,6.3.7,8.9,2,2.6,1.3,4.7,3.1,6.1,5.4,1.5,2.3,2.2,5,2.2,8s-1.1,6.8-3.2,9.7c-2.2,2.9-4.9,4.9-8.2,6.1-.4.1-.6.3-.6.6,0,.3.2.5.6.6,1.8.9,3.2,2,4.3,3.6,1,1.5,1.9,3.6,2.4,6.1l1.9,8.7c.6,3,1.4,5.1,2.2,6.3.9,1.2,1.9,1.9,3.2,1.9s.9,0,1.2-.2c.4-.1.8-.4,1.4-.8.5-.3.9-.4,1.3-.2.4.1.6.4.6.9,0,1-.6,1.8-1.9,2.5-1.2.7-2.7,1.1-4.3,1.1ZM507.4,31c3.9,0,6.8-1.3,8.8-3.9,2-2.6,3-6,3-10.3s-1.1-7.5-3.4-9.8c-2.3-2.4-5.5-3.5-9.5-3.5s-4.5,1.1-4.5,3.4v19.5c0,3.1,1.9,4.7,5.7,4.7Z"/>
  <path class="st0" d="M529.3,62.6c-.9,0-1.3-.3-1.3-.9s.4-.9,1.1-1l2-.3c1.2-.2,2-.5,2.3-.9.4-.4.6-1.2.6-2.4V6.9c0-1.2-.2-2-.6-2.4-.4-.4-1.1-.7-2.3-.9l-2-.3c-.7-.2-1.1-.5-1.1-1s.4-.9,1.3-.9h15.4c.9,0,1.3.3,1.3.9s-.4.9-1.1,1l-2,.3c-1.2.2-2,.5-2.3.9-.4.4-.6,1.2-.6,2.4v50c0,1.2.2,2,.6,2.4.4.4,1.1.7,2.3.9l2,.3c.7.2,1.1.5,1.1,1s-.4.9-1.3.9h-15.4Z"/>
  <path class="st0" d="M541.8,62.6c-.9,0-1.3-.3-1.3-.9s.4-.9,1.2-1.1l1.3-.3c1.1-.2,2-.8,2.6-1.7.6-.9,1-2.1,1.4-3.7l13.2-53.2c.1-.6.3-.9.6-1.1.3-.2.5-.3.7-.3s.6,0,.8.3c.3.2.4.5.6,1.1l13.4,54c.4,1.6.9,2.7,1.4,3.3.5.6,1.3,1.1,2.4,1.3l1.3.3c.8.2,1.2.5,1.2,1.1s-.4.9-1.3.9h-14.6c-.8,0-1.2-.3-1.2-.9s.5-1,1.4-1l1.6-.2c1-.1,1.6-.4,1.8-.9.3-.5.2-1.4,0-2.6l-3.2-13.2c-.3-1.5-1.3-2.2-2.8-2.2h-8.9c-1.5,0-2.4.7-2.8,2.2l-2.9,11.4c-.9,3.2,0,5,2.6,5.4l1.3.2c1,.2,1.4.5,1.4,1s-.4.9-1.2.9h-11.9ZM555,38.9h9.4c.9,0,1.3-.5,1.1-1.4l-5.4-22.8h-.4l-5.7,22.8c-.2,1,.2,1.4,1.1,1.4Z"/>
</svg>