<svg width="1280" height="139" viewBox="0 0 1280 139" fill="none" xmlns="http://www.w3.org/2000/svg">
<path d="M1270.39 138.387C1267.68 138.387 1265.34 137.524 1263.37 135.8C1261.52 133.952 1260.6 131.55 1260.6 128.593C1260.6 125.759 1261.52 123.48 1263.37 121.756C1265.34 119.908 1267.68 118.984 1270.39 118.984C1272.85 118.984 1275.07 119.908 1277.04 121.756C1279.01 123.48 1280 125.759 1280 128.593C1280 131.55 1279.01 133.952 1277.04 135.8C1275.07 137.524 1272.85 138.387 1270.39 138.387Z" fill="black"/>
<path d="M1248.27 138.387C1237.55 138.387 1230.72 131.365 1227.76 117.321L1223.51 96.8092C1222.16 90.1567 1220.62 85.1058 1218.89 81.6564C1217.29 78.207 1215.01 75.8663 1212.05 74.6344C1209.22 73.4025 1205.28 72.7865 1200.23 72.7865C1198.5 72.7865 1197.15 73.2793 1196.16 74.2648C1195.18 75.1272 1194.68 76.2359 1194.68 77.591V123.788C1194.68 126.375 1195.18 128.162 1196.16 129.147C1197.15 130.01 1199.36 130.749 1202.81 131.365L1209.65 132.474C1211.01 132.72 1211.68 133.397 1211.68 134.506C1211.68 135.984 1210.76 136.724 1208.91 136.724H1171.4C1169.55 136.724 1168.63 136.046 1168.63 134.691C1168.63 133.582 1169.43 132.843 1171.03 132.474L1175.28 131.734C1177.87 131.242 1179.53 130.564 1180.27 129.702C1181.13 128.839 1181.56 127.115 1181.56 124.528V15.8714C1181.56 13.2843 1181.13 11.5596 1180.27 10.6973C1179.53 9.83494 1177.87 9.15738 1175.28 8.66461L1171.03 7.92545C1169.43 7.55587 1168.63 6.81671 1168.63 5.70797C1168.63 4.35285 1169.55 3.67529 1171.4 3.67529H1208.91C1216.18 3.67529 1222.65 5.09201 1228.32 7.92545C1233.98 10.7589 1238.42 14.7011 1241.62 19.752C1244.82 24.6797 1246.42 30.4082 1246.42 36.9374C1246.42 44.6985 1244.08 51.7205 1239.4 58.0034C1234.72 64.163 1228.81 68.5364 1221.66 71.1234C1220.8 71.3698 1220.31 71.801 1220.18 72.4169C1220.18 72.9097 1220.62 73.3409 1221.48 73.7105C1225.42 75.5584 1228.5 78.1454 1230.72 81.4716C1233.06 84.7978 1234.84 89.2328 1236.08 94.7765L1240.14 113.625C1241.5 120.031 1243.1 124.589 1244.95 127.299C1246.79 130.01 1249.13 131.365 1251.97 131.365C1252.95 131.365 1253.82 131.242 1254.56 130.995C1255.42 130.626 1256.46 130.01 1257.7 129.147C1258.68 128.531 1259.61 128.408 1260.47 128.778C1261.33 129.024 1261.76 129.64 1261.76 130.626C1261.76 132.72 1260.41 134.568 1257.7 136.169C1254.99 137.648 1251.85 138.387 1248.27 138.387ZM1207.06 68.1668C1215.44 68.1668 1221.79 65.3949 1226.1 59.8513C1230.41 54.1844 1232.57 46.6696 1232.57 37.307C1232.57 28.1907 1230.04 21.1071 1224.99 16.0562C1220.06 10.8821 1213.22 8.29502 1204.48 8.29502C1197.95 8.29502 1194.68 10.7589 1194.68 15.6866V58.0034C1194.68 64.779 1198.81 68.1668 1207.06 68.1668Z" fill="black"/>
<path d="M1096.91 136.724C1095.06 136.724 1094.14 136.046 1094.14 134.691C1094.14 133.582 1094.94 132.843 1096.54 132.474L1100.79 131.734C1103.37 131.242 1105.04 130.564 1105.78 129.702C1106.64 128.839 1107.07 127.115 1107.07 124.528V15.8714C1107.07 13.2843 1106.64 11.5596 1105.78 10.6973C1105.04 9.83494 1103.37 9.15738 1100.79 8.66461L1096.54 7.92545C1094.94 7.55587 1094.14 6.81671 1094.14 5.70797C1094.14 4.35285 1095.06 3.67529 1096.91 3.67529H1159C1161.83 3.67529 1163.37 5.09201 1163.62 7.92545L1165.09 38.6005C1165.34 40.6948 1164.54 41.7419 1162.69 41.7419C1161.21 41.7419 1160.35 40.9412 1160.1 39.3396L1159 32.5024C1157.64 24.1253 1154.87 18.0273 1150.68 14.2083C1146.49 10.2661 1140.7 8.29502 1133.31 8.29502C1128.38 8.29502 1124.93 9.03418 1122.96 10.5125C1121.11 11.8676 1120.19 14.3315 1120.19 17.9041V62.4383C1120.19 64.163 1121.05 65.0254 1122.78 65.0254H1132.02C1137.44 65.0254 1140.76 62.1303 1142 56.3403L1143.84 47.1008C1144.34 45.2529 1145.38 44.4522 1146.98 44.6985C1148.34 44.9449 1149.02 45.9921 1149.02 47.84V89.4176C1149.02 91.2655 1148.34 92.3126 1146.98 92.559C1145.38 92.8054 1144.34 92.0046 1143.84 90.1567L1142 81.1021C1141.13 76.7903 1139.9 73.9569 1138.3 72.6017C1136.82 71.2466 1134.67 70.5691 1131.83 70.5691H1122.78C1121.05 70.5691 1120.19 71.4314 1120.19 73.1561V119.538C1120.19 123.973 1121.3 127.176 1123.52 129.147C1125.86 131.118 1130.05 132.104 1136.08 132.104C1142.24 132.104 1147.48 130.564 1151.79 127.484C1156.22 124.281 1159.3 118.368 1161.03 109.744L1163.25 98.8418C1163.62 97.2403 1164.54 96.4396 1166.02 96.4396C1167.74 96.4396 1168.48 97.4867 1168.24 99.581L1166.39 132.474C1166.14 135.307 1164.6 136.724 1161.77 136.724H1096.91Z" fill="black"/>
<path d="M1059.8 138.387C1049.82 138.387 1041.38 135.553 1034.48 129.886C1027.58 124.22 1022.35 116.274 1018.78 106.049C1015.2 95.7004 1013.42 83.5043 1013.42 69.4603C1013.42 55.9091 1015.51 44.0826 1019.7 33.9807C1023.89 23.7557 1029.62 15.8714 1036.89 10.3277C1044.28 4.66084 1052.72 1.8274 1062.2 1.8274C1067.01 1.8274 1071.38 2.32017 1075.32 3.30571C1079.26 4.16806 1082.71 5.3384 1085.67 6.81671C1087.27 7.67906 1088.07 8.97259 1088.07 10.6973L1088.63 38.7853C1088.63 40.8796 1087.89 41.9267 1086.41 41.9267C1085.05 41.9267 1084.19 41.1259 1083.82 39.5244L1082.34 33.9807C1079.63 23.7557 1076.55 16.7337 1073.1 12.9148C1069.65 9.09578 1064.91 7.18629 1058.87 7.18629C1049.88 7.18629 1042.43 12.5452 1036.52 23.263C1030.73 33.8576 1027.83 49.2567 1027.83 69.4603C1027.83 90.2799 1030.79 106.172 1036.7 117.136C1042.74 127.977 1050.44 133.397 1059.8 133.397C1064.85 133.397 1068.67 132.289 1071.26 130.071C1073.84 127.854 1075.14 123.727 1075.14 117.69V77.2215C1075.14 74.6344 1074.71 72.8481 1073.84 71.8626C1073.1 70.877 1071.44 70.2611 1068.85 70.0147L1061.65 69.2755C1060.05 69.1523 1059.24 68.4132 1059.24 67.0581C1059.24 65.7029 1060.17 65.0254 1062.02 65.0254H1095.83C1097.68 65.0254 1098.6 65.7645 1098.6 67.2428C1098.6 68.3516 1097.93 69.0291 1096.57 69.2755L1093.8 69.6451C1091.09 70.0147 1089.49 70.7538 1089 71.8626C1088.5 72.9713 1088.26 74.8192 1088.26 77.4063V127.484C1088.26 128.839 1087.89 129.948 1087.15 130.81C1086.41 131.55 1085.12 132.412 1083.27 133.397C1080.31 134.876 1076.92 136.046 1073.1 136.908C1069.28 137.894 1064.85 138.387 1059.8 138.387Z" fill="black"/>
<path d="M996.911 138.387C994.94 138.387 993.277 136.908 991.922 133.952L941.844 25.2956C941.474 24.4333 940.982 24.0637 940.366 24.1869C939.873 24.3101 939.627 24.8645 939.627 25.85V120.832C939.627 124.281 940.181 126.93 941.29 128.778C942.522 130.502 944.677 131.611 947.757 132.104L950.16 132.474C951.761 132.597 952.562 133.336 952.562 134.691C952.562 136.046 951.638 136.724 949.79 136.724H923.365C921.517 136.724 920.593 136.046 920.593 134.691C920.593 133.336 921.394 132.597 922.995 132.474L925.398 132.104C928.601 131.611 930.818 130.502 932.05 128.778C933.282 126.93 933.898 124.281 933.898 120.832V15.8714C933.898 13.2843 933.467 11.5596 932.605 10.6973C931.865 9.83494 930.079 9.15738 927.246 8.66461L922.995 7.92545C921.394 7.55587 920.593 6.81671 920.593 5.70797C920.593 4.35285 921.517 3.67529 923.365 3.67529H943.138C946.217 3.67529 948.373 5.03042 949.605 7.74066L993.215 103.646C993.585 104.386 994.016 104.693 994.509 104.57C995.125 104.447 995.433 104.016 995.433 103.277V19.5672C995.433 15.625 994.755 12.9148 993.4 11.4364C992.045 9.83494 990.32 8.8494 988.226 8.47982L984.9 7.92545C983.298 7.55587 982.498 6.81671 982.498 5.70797C982.498 4.35285 983.422 3.67529 985.27 3.67529H1011.69C1013.54 3.67529 1014.47 4.35285 1014.47 5.70797C1014.47 7.0631 1013.67 7.80226 1012.06 7.92545L1009.66 8.29502C1006.46 8.78779 1004.24 9.83494 1003.01 11.4364C1001.78 12.9148 1001.16 15.625 1001.16 19.5672V132.474C1001.16 134.691 1000.73 136.231 999.868 137.093C999.129 137.956 998.143 138.387 996.911 138.387Z" fill="black"/>
<path d="M843.672 136.724C841.824 136.724 840.9 136.108 840.9 134.876C840.9 133.644 841.762 132.843 843.487 132.474L846.259 131.919C848.723 131.426 850.571 130.256 851.803 128.408C853.035 126.437 854.082 123.727 854.944 120.277L883.586 4.78402C883.833 3.5521 884.202 2.75134 884.695 2.38176C885.311 2.01219 885.865 1.8274 886.358 1.8274C886.974 1.8274 887.529 2.01219 888.021 2.38176C888.637 2.75134 889.068 3.5521 889.315 4.78402L918.512 121.941C919.374 125.39 920.359 127.792 921.468 129.147C922.577 130.502 924.302 131.426 926.642 131.919L929.414 132.474C931.139 132.843 932.001 133.644 932.001 134.876C932.001 136.108 931.077 136.724 929.229 136.724H897.63C895.906 136.724 895.043 136.046 895.043 134.691C895.043 133.336 896.09 132.597 898.185 132.474L901.696 132.104C903.79 131.858 905.084 131.18 905.576 130.071C906.192 128.963 906.192 127.053 905.576 124.343L898.554 95.7004C897.815 92.4974 895.782 90.8959 892.456 90.8959H873.053C869.85 90.8959 867.818 92.4974 866.955 95.7004L860.672 120.462C858.825 127.484 860.673 131.365 866.216 132.104L868.988 132.474C871.082 132.843 872.129 133.582 872.129 134.691C872.129 136.046 871.267 136.724 869.542 136.724H843.672ZM872.499 85.3522H892.826C894.797 85.3522 895.598 84.3051 895.228 82.2108L883.402 32.6872H882.478L870.097 82.2108C869.727 84.3051 870.528 85.3522 872.499 85.3522Z" fill="black"/>
<path d="M851.084 138.387C840.366 138.387 833.529 131.365 830.572 117.321L826.322 96.8092C824.967 90.1567 823.427 85.1058 821.702 81.6564C820.101 78.207 817.822 75.8663 814.865 74.6344C812.031 73.4025 808.089 72.7865 803.038 72.7865C801.314 72.7865 799.959 73.2793 798.973 74.2648C797.988 75.1272 797.495 76.2359 797.495 77.591V123.788C797.495 126.375 797.988 128.162 798.973 129.147C799.959 130.01 802.176 130.749 805.625 131.365L812.463 132.474C813.818 132.72 814.495 133.397 814.495 134.506C814.495 135.984 813.571 136.724 811.723 136.724H774.211C772.363 136.724 771.439 136.046 771.439 134.691C771.439 133.582 772.24 132.843 773.842 132.474L778.092 131.734C780.679 131.242 782.342 130.564 783.081 129.702C783.943 128.839 784.375 127.115 784.375 124.528V15.8714C784.375 13.2843 783.943 11.5596 783.081 10.6973C782.342 9.83494 780.679 9.15738 778.092 8.66461L773.842 7.92545C772.24 7.55587 771.439 6.81671 771.439 5.70797C771.439 4.35285 772.363 3.67529 774.211 3.67529H811.723C818.992 3.67529 825.459 5.09201 831.126 7.92545C836.793 10.7589 841.228 14.7011 844.431 19.752C847.634 24.6797 849.236 30.4082 849.236 36.9374C849.236 44.6985 846.895 51.7205 842.214 58.0034C837.532 64.163 831.619 68.5364 824.474 71.1234C823.612 71.3698 823.119 71.801 822.996 72.4169C822.996 72.9097 823.427 73.3409 824.289 73.7105C828.231 75.5584 831.311 78.1454 833.529 81.4716C835.869 84.7978 837.656 89.2328 838.888 94.7765L842.953 113.625C844.308 120.031 845.91 124.589 847.757 127.299C849.605 130.01 851.946 131.365 854.779 131.365C855.765 131.365 856.627 131.242 857.366 130.995C858.229 130.626 859.276 130.01 860.508 129.147C861.493 128.531 862.417 128.408 863.28 128.778C864.142 129.024 864.573 129.64 864.573 130.626C864.573 132.72 863.218 134.568 860.508 136.169C857.798 137.648 854.656 138.387 851.084 138.387ZM809.876 68.1668C818.253 68.1668 824.597 65.3949 828.909 59.8513C833.221 54.1844 835.377 46.6696 835.377 37.307C835.377 28.1907 832.851 21.1071 827.8 16.0562C822.872 10.8821 816.035 8.29502 807.289 8.29502C800.759 8.29502 797.495 10.7589 797.495 15.6866V58.0034C797.495 64.779 801.622 68.1668 809.876 68.1668Z" fill="black"/>
<path d="M713.797 136.724C711.949 136.724 711.025 136.046 711.025 134.691C711.025 133.336 711.826 132.597 713.427 132.474L721.743 131.18C724.206 130.81 725.87 130.194 726.732 129.332C727.594 128.347 728.025 126.56 728.025 123.973V13.0995C728.025 11.3748 727.656 10.1429 726.917 9.40376C726.178 8.6646 724.638 8.29502 722.297 8.29502C717.739 8.29502 713.242 10.2661 708.807 14.2083C704.372 18.1505 701.477 24.4949 700.122 33.2416L699.198 39.3396C698.952 40.9412 698.09 41.7419 696.611 41.7419C694.763 41.7419 693.963 40.6948 694.209 38.6005L695.872 5.15361C696.118 2.32017 697.227 0.90345 699.198 0.90345C700.061 0.90345 700.861 1.14984 701.601 1.64261C702.34 2.01218 703.572 2.44336 705.296 2.93613C707.144 3.4289 710.039 3.67529 713.981 3.67529H755.189C759.132 3.67529 761.965 3.4289 763.69 2.93613C765.538 2.44336 766.831 2.01218 767.57 1.64261C768.433 1.14984 769.233 0.90345 769.973 0.90345C771.944 0.90345 773.052 2.32017 773.299 5.15361L774.962 38.6005C775.208 40.6948 774.408 41.7419 772.56 41.7419C771.081 41.7419 770.219 40.9412 769.973 39.3396L769.049 33.2416C767.817 24.4949 764.983 18.1505 760.548 14.2083C756.113 10.2661 751.555 8.29502 746.874 8.29502C744.533 8.29502 742.993 8.6646 742.254 9.40376C741.515 10.1429 741.145 11.3748 741.145 13.0995V123.973C741.145 126.56 741.577 128.347 742.439 129.332C743.425 130.194 745.088 130.81 747.428 131.18L755.744 132.474C757.345 132.597 758.146 133.336 758.146 134.691C758.146 136.046 757.222 136.724 755.374 136.724H713.797Z" fill="black"/>
<path d="M661.425 138.387C658.961 138.387 656.189 138.14 653.109 137.648C650.153 137.155 647.319 136.539 644.609 135.8C642.022 135.061 639.989 134.26 638.511 133.397C637.649 132.905 636.971 132.412 636.478 131.919C636.109 131.303 635.924 130.318 635.924 128.963L635 99.9506C635 97.4867 635.801 96.2548 637.402 96.2548C638.757 96.2548 639.681 97.3635 640.174 99.581L641.837 106.603C646.026 124.22 653.848 133.028 665.305 133.028C671.465 133.028 676.331 130.995 679.904 126.93C683.599 122.741 685.447 116.89 685.447 109.375C685.447 102.106 683.538 95.3308 679.719 89.048C676.023 82.7652 670.048 76.5439 661.794 70.3843C652.678 63.855 646.026 57.5722 641.837 51.5357C637.649 45.3761 635.554 38.8469 635.554 31.9481C635.554 22.8318 638.696 15.5634 644.979 10.1429C651.385 4.59924 659.515 1.8274 669.371 1.8274C673.067 1.8274 676.639 2.25857 680.089 3.12092C683.538 3.98327 686.371 5.2152 688.589 6.81671C689.328 7.30948 689.882 7.86385 690.252 8.47982C690.745 9.09579 690.991 9.89654 690.991 10.8821L691.545 38.7853C691.545 40.8796 690.745 41.9267 689.143 41.9267C688.034 41.9267 687.234 41.0643 686.741 39.3396L685.447 34.7199C682.737 25.2341 679.904 18.3353 676.947 14.0235C674.114 9.58855 669.987 7.37108 664.566 7.37108C659.269 7.37108 655.019 9.09578 651.816 12.5452C648.736 15.9946 647.196 20.8607 647.196 27.1435C647.196 32.4408 648.921 37.4917 652.37 42.2963C655.82 47.1008 661.856 52.9525 670.479 59.8513C679.719 67.366 686.433 74.6344 690.621 81.6564C694.933 88.5552 697.089 95.9468 697.089 103.831C697.089 110.73 695.549 116.766 692.469 121.941C689.39 127.115 685.139 131.18 679.719 134.137C674.422 136.97 668.324 138.387 661.425 138.387Z" fill="black"/>
<path d="M537.053 136.724C535.205 136.724 534.281 136.046 534.281 134.691C534.281 133.582 535.082 132.843 536.683 132.474L540.933 131.734C543.52 131.242 545.184 130.564 545.923 129.702C546.785 128.839 547.216 127.115 547.216 124.528V15.8714C547.216 13.2843 546.785 11.5596 545.923 10.6973C545.184 9.83494 543.52 9.15738 540.933 8.66461L536.683 7.92545C535.082 7.55587 534.281 6.81671 534.281 5.70797C534.281 4.35285 535.205 3.67529 537.053 3.67529H599.142C601.975 3.67529 603.515 5.09201 603.762 7.92545L605.24 38.6005C605.486 40.6948 604.686 41.7419 602.838 41.7419C601.359 41.7419 600.497 40.9412 600.251 39.3396L599.142 32.5024C597.787 24.1253 595.015 18.0273 590.826 14.2083C586.638 10.2661 580.848 8.29502 573.456 8.29502C568.529 8.29502 565.079 9.03418 563.108 10.5125C561.26 11.8676 560.336 14.3315 560.336 17.9041V62.4383C560.336 64.163 561.199 65.0254 562.923 65.0254H572.163C577.583 65.0254 580.909 62.1303 582.141 56.3403L583.989 47.1008C584.482 45.2529 585.529 44.4522 587.131 44.6985C588.486 44.9449 589.163 45.9921 589.163 47.84V89.4176C589.163 91.2655 588.486 92.3126 587.131 92.559C585.529 92.8054 584.482 92.0046 583.989 90.1567L582.141 81.1021C581.279 76.7903 580.047 73.9569 578.446 72.6017C576.967 71.2466 574.811 70.5691 571.978 70.5691H562.923C561.199 70.5691 560.336 71.4314 560.336 73.1561V119.538C560.336 123.973 561.445 127.176 563.662 129.147C566.003 131.118 570.192 132.104 576.228 132.104C582.388 132.104 587.624 130.564 591.935 127.484C596.37 124.281 599.45 118.368 601.175 109.744L603.392 98.8418C603.762 97.2403 604.686 96.4396 606.164 96.4396C607.889 96.4396 608.628 97.4867 608.381 99.581L606.534 132.474C606.287 135.307 604.747 136.724 601.914 136.724H537.053Z" fill="black"/>
<path d="M476.77 134.876C476.277 134.876 475.722 134.691 475.106 134.321C474.49 133.952 474.059 133.151 473.813 131.919L445.91 18.6432C445.787 17.7809 445.417 17.4113 444.801 17.5345C444.185 17.5345 443.877 17.9657 443.877 18.828L440.181 120.832C440.058 124.281 440.612 126.93 441.844 128.778C443.076 130.502 445.232 131.611 448.312 132.104L450.714 132.474C452.316 132.597 453.117 133.336 453.117 134.691C453.117 136.046 452.193 136.724 450.345 136.724H423.92C422.072 136.724 421.148 136.046 421.148 134.691C421.148 133.336 421.949 132.597 423.55 132.474L425.952 132.104C429.156 131.611 431.311 130.502 432.42 128.778C433.652 126.93 434.33 124.281 434.453 120.832L438.149 15.8714C438.272 13.2843 437.902 11.5596 437.04 10.6973C436.177 9.83494 434.33 9.15738 431.496 8.66461L427.246 7.92545C425.644 7.55587 424.844 6.81671 424.844 5.70797C424.844 4.35285 425.768 3.67529 427.616 3.67529H449.79C453.609 3.67529 455.95 5.52319 456.812 9.21897L479.172 101.429C479.418 102.291 479.788 102.722 480.281 102.722C480.897 102.722 481.266 102.291 481.389 101.429L504.673 8.29502C505.412 5.2152 507.383 3.67529 510.586 3.67529H532.391C534.239 3.67529 535.163 4.35285 535.163 5.70797C535.163 6.81671 534.362 7.55587 532.761 7.92545L528.511 8.66461C525.924 9.15738 524.199 9.83494 523.336 10.6973C522.474 11.5596 522.105 13.2843 522.228 15.8714L525.924 124.528C526.047 127.115 526.478 128.839 527.217 129.702C527.956 130.564 529.619 131.242 532.206 131.734L536.457 132.474C538.058 132.843 538.859 133.582 538.859 134.691C538.859 136.046 537.935 136.724 536.087 136.724H502.64C500.792 136.724 499.868 136.046 499.868 134.691C499.868 133.582 500.669 132.843 502.27 132.474L506.521 131.734C509.108 131.242 510.832 130.564 511.695 129.702C512.557 128.839 512.927 127.115 512.803 124.528L509.662 18.828C509.662 17.9657 509.354 17.5345 508.738 17.5345C508.245 17.4113 507.876 17.7193 507.629 18.4584L479.541 131.919C479.295 133.151 478.864 133.952 478.248 134.321C477.755 134.691 477.262 134.876 476.77 134.876Z" fill="black"/>
<path d="M377.9 138.387C371.987 138.387 366.443 136.662 361.269 133.213C356.095 129.64 351.537 124.774 347.595 118.614C343.776 112.455 340.757 105.248 338.54 96.9939C336.446 88.6168 335.399 79.6237 335.399 70.0147C335.399 60.4056 336.446 51.4742 338.54 43.2202C340.757 34.9663 343.776 27.7595 347.595 21.5999C351.537 15.317 356.095 10.4509 361.269 7.0015C366.443 3.5521 371.987 1.8274 377.9 1.8274C383.813 1.8274 389.295 3.5521 394.346 7.0015C399.52 10.4509 404.079 15.317 408.021 21.5999C411.963 27.7595 414.981 34.9663 417.075 43.2202C419.293 51.4742 420.402 60.4056 420.402 70.0147C420.402 79.6237 419.293 88.6168 417.075 96.9939C414.981 105.248 411.963 112.455 408.021 118.614C404.079 124.774 399.52 129.64 394.346 133.213C389.295 136.662 383.813 138.387 377.9 138.387ZM377.9 133.397C386.647 133.397 393.484 128.162 398.412 117.69C403.339 107.219 405.803 91.3271 405.803 70.0147C405.803 48.7023 403.339 32.872 398.412 22.5238C393.484 12.0524 386.647 6.81671 377.9 6.81671C369.277 6.81671 362.439 12.0524 357.388 22.5238C352.461 32.872 349.997 48.7023 349.997 70.0147C349.997 91.3271 352.461 107.219 357.388 117.69C362.439 128.162 369.277 133.397 377.9 133.397Z" fill="black"/>
<path d="M303.476 138.387C294.36 138.387 286.352 135.553 279.454 129.886C272.678 124.22 267.381 116.274 263.562 106.049C259.866 95.7004 258.018 83.5043 258.018 69.4603C258.018 55.9091 260.051 44.0826 264.116 33.9807C268.305 23.7557 273.848 15.8714 280.747 10.3277C287.769 4.66084 295.53 1.8274 304.031 1.8274C309.081 1.8274 313.516 2.32017 317.335 3.30571C321.154 4.16806 324.542 5.3384 327.499 6.81671C328.977 7.67906 329.716 8.97259 329.716 10.6973L330.271 38.7853C330.271 40.8796 329.531 41.9267 328.053 41.9267C326.698 41.9267 325.836 41.1259 325.466 39.5244L323.618 32.6872C321.031 23.0782 318.013 16.4258 314.564 12.73C311.237 9.03418 307.234 7.18629 302.552 7.18629C293.929 7.18629 286.722 12.5452 280.932 23.263C275.265 33.8576 272.432 49.2567 272.432 69.4603C272.432 83.2579 273.848 94.8997 276.682 104.386C279.638 113.871 283.396 121.017 287.954 125.821C292.635 130.626 297.563 133.028 302.737 133.028C308.281 133.028 312.716 131.303 316.042 127.854C319.491 124.404 322.386 117.752 324.727 107.897L326.944 98.8418C327.314 96.9939 328.3 96.1932 329.901 96.4396C331.256 96.686 331.934 97.7331 331.934 99.581L331.195 129.517C331.195 131.242 330.394 132.535 328.792 133.397C325.836 134.876 322.325 136.046 318.259 136.908C314.317 137.894 309.389 138.387 303.476 138.387Z" fill="black"/>
<path d="M192.341 136.724C190.493 136.724 189.569 136.046 189.569 134.691C189.569 133.582 190.37 132.843 191.972 132.474L196.222 131.734C198.809 131.242 200.472 130.564 201.211 129.702C202.073 128.839 202.505 127.115 202.505 124.528V15.8714C202.505 13.2843 202.073 11.5596 201.211 10.6973C200.472 9.83494 198.809 9.15738 196.222 8.66461L191.972 7.92545C190.37 7.55587 189.569 6.81671 189.569 5.70797C189.569 4.35285 190.493 3.67529 192.341 3.67529H226.158C228.006 3.67529 228.929 4.41445 228.929 5.89277C228.929 7.0015 228.252 7.67906 226.897 7.92545L221.907 8.66461C219.32 9.03418 217.596 9.71174 216.733 10.6973C215.994 11.6828 215.625 13.4691 215.625 16.0562V119.538C215.625 123.973 216.857 127.176 219.32 129.147C221.907 131.118 225.111 132.104 228.929 132.104C231.763 132.104 234.658 131.55 237.615 130.441C240.694 129.209 243.466 126.991 245.93 123.788C248.394 120.462 250.242 115.658 251.474 109.375L253.876 96.9939C254.246 95.3924 255.17 94.5917 256.648 94.5917C258.373 94.5917 259.112 95.6388 258.865 97.7331L256.648 132.474C256.401 135.307 254.862 136.724 252.028 136.724H192.341Z" fill="black"/>
<path d="M117.848 136.724C116 136.724 115.076 136.046 115.076 134.691C115.076 133.582 115.877 132.843 117.478 132.474L121.729 131.734C124.316 131.242 125.979 130.564 126.718 129.702C127.58 128.839 128.011 127.115 128.011 124.528V15.8714C128.011 13.2843 127.58 11.5596 126.718 10.6973C125.979 9.83494 124.316 9.15738 121.729 8.66461L117.478 7.92545C115.877 7.55587 115.076 6.81671 115.076 5.70797C115.076 4.35285 116 3.67529 117.848 3.67529H179.937C182.771 3.67529 184.311 5.09201 184.557 7.92545L186.035 38.6005C186.282 40.6948 185.481 41.7419 183.633 41.7419C182.155 41.7419 181.292 40.9412 181.046 39.3396L179.937 32.5024C178.582 24.1253 175.81 18.0273 171.622 14.2083C167.433 10.2661 161.643 8.29502 154.252 8.29502C149.324 8.29502 145.874 9.03418 143.903 10.5125C142.055 11.8676 141.131 14.3315 141.131 17.9041V62.4383C141.131 64.163 141.994 65.0254 143.719 65.0254H152.958C158.378 65.0254 161.705 62.1303 162.937 56.3403L164.785 47.1008C165.277 45.2529 166.324 44.4522 167.926 44.6985C169.281 44.9449 169.959 45.9921 169.959 47.84V89.4176C169.959 91.2655 169.281 92.3126 167.926 92.559C166.324 92.8054 165.277 92.0046 164.785 90.1567L162.937 81.1021C162.074 76.7903 160.842 73.9569 159.241 72.6017C157.763 71.2466 155.607 70.5691 152.773 70.5691H143.719C141.994 70.5691 141.131 71.4314 141.131 73.1561V119.538C141.131 123.973 142.24 127.176 144.458 129.147C146.798 131.118 150.987 132.104 157.023 132.104C163.183 132.104 168.419 130.564 172.73 127.484C177.165 124.281 180.245 118.368 181.97 109.744L184.187 98.8418C184.557 97.2403 185.481 96.4396 186.959 96.4396C188.684 96.4396 189.423 97.4867 189.177 99.581L187.329 132.474C187.082 135.307 185.543 136.724 182.709 136.724H117.848Z" fill="black"/>
<path d="M83.1552 138.572C82.6625 138.572 82.1697 138.387 81.6769 138.017C81.1841 137.648 80.8146 136.847 80.5682 135.615L66.3394 78.3302C66.2162 77.3447 65.8466 76.9135 65.2307 77.0367C64.6147 77.0367 64.1835 77.4679 63.9371 78.3302L48.0452 135.615C47.6757 136.847 47.2445 137.648 46.7517 138.017C46.3821 138.387 45.951 138.572 45.4582 138.572C44.9654 138.572 44.411 138.387 43.7951 138.017C43.3023 137.648 42.9327 136.847 42.6863 135.615L13.4896 18.4584C12.6273 15.009 11.6417 12.6068 10.533 11.2517C9.54745 9.89653 7.82275 8.97259 5.35889 8.47982L2.58705 7.92545C0.86235 7.55587 0 6.75511 0 5.52319C0 4.29126 0.923947 3.67529 2.77184 3.67529H32.5229C34.2476 3.67529 35.11 4.35285 35.11 5.70797C35.11 6.81671 34.186 7.55587 32.3381 7.92545L30.3055 8.29502C28.2112 8.6646 26.8561 9.40376 26.2401 10.5125C25.7473 11.498 25.8089 13.3459 26.4249 16.0562L48.23 106.233C48.4764 107.096 48.846 107.527 49.3388 107.527C49.9547 107.527 50.3859 107.096 50.6323 106.233L58.9478 76.1127C60.3029 71.4314 60.9805 67.1196 60.9805 63.1775C60.9805 59.2353 60.3645 54.862 59.1326 50.0574L51.3714 18.4584C50.5091 15.009 49.6467 12.5452 48.7844 11.0669C48.0452 9.58855 46.9981 8.72621 45.643 8.47982L42.8711 7.92545C41.1464 7.55587 40.2841 6.75511 40.2841 5.52319C40.2841 4.29126 41.208 3.67529 43.0559 3.67529H68.3721C70.0968 3.67529 70.9591 4.35285 70.9591 5.70797C70.9591 6.81671 70.0352 7.55587 68.1873 7.92545L66.1546 8.29502C64.5531 8.54141 63.5675 9.21898 63.198 10.3277C62.9516 11.4365 63.1364 13.3459 63.7523 16.0562L70.0352 42.4811C70.2816 43.3434 70.6511 43.7746 71.1439 43.7746C71.7599 43.7746 72.191 43.3434 72.4374 42.4811L79.0899 19.9368C80.445 15.2554 80.9378 12.1756 80.5682 10.6973C80.3218 9.21898 79.6442 8.41822 78.5355 8.29502L76.5028 7.92545C74.6549 7.55587 73.731 6.81671 73.731 5.70797C73.731 4.35285 74.5933 3.67529 76.318 3.67529H93.873C95.9673 3.67529 97.0144 4.35285 97.0144 5.70797C97.0144 6.9399 95.9673 7.67906 93.873 7.92545L91.8403 8.11023C90.2388 8.23343 88.8837 9.21897 87.775 11.0669C86.7894 12.9148 85.6807 15.933 84.4487 20.1215L77.4268 44.329C76.0716 48.8871 75.3325 53.1989 75.2093 57.2642C75.2093 61.2064 75.7636 65.5797 76.8724 70.3843L85.1879 105.125C85.4343 105.987 85.8039 106.418 86.2966 106.418C86.9126 106.418 87.2822 105.987 87.4054 105.125L108.656 19.9368C110.381 12.7916 109.272 8.91099 105.33 8.29502L103.297 7.92545C101.449 7.55587 100.525 6.75511 100.525 5.52319C100.525 4.29126 101.388 3.67529 103.112 3.67529H123.809C125.903 3.67529 126.95 4.35285 126.95 5.70797C126.95 6.9399 125.903 7.67906 123.809 7.92545L121.776 8.11023C120.175 8.23343 118.758 9.21897 117.526 11.0669C116.417 12.7916 115.37 15.8098 114.385 20.1215L85.7423 135.615C85.4959 136.847 85.1263 137.648 84.6335 138.017C84.1408 138.387 83.648 138.572 83.1552 138.572Z" fill="black"/>
<path d="M636.977 68.81C636.977 69.1437 636.977 69.4774 636.887 69.8111C636.796 70.3117 636.706 70.8123 636.435 71.2294C636.163 71.5632 635.892 71.8134 635.44 71.9803C634.807 72.314 634.445 72.8146 634.354 73.3986C634.174 74.0661 633.993 74.6501 633.721 75.2341C633.631 75.4844 633.54 75.6512 633.54 75.9015C633.45 76.3187 633.179 76.5689 632.726 76.6524C632.455 76.7358 632.274 76.8192 632.003 76.9861C631.732 77.153 631.732 77.4032 631.912 77.737C632.184 77.9873 632.455 78.2375 632.636 78.4878C632.817 78.7381 632.998 78.9884 633.269 79.2387C633.54 79.5724 633.45 79.9061 633.45 80.2399C633.45 80.4902 633.45 80.657 633.36 80.9073C633.36 81.241 633.269 81.6582 633.269 81.9919C633.269 82.8262 633.269 83.5771 633.269 84.4114C633.269 84.7451 632.998 84.9119 632.726 84.8285C632.184 84.6616 632.003 84.4114 632.003 83.8273C632.003 83.4102 632.003 82.993 632.093 82.5759C632.093 82.1587 632.184 81.7416 632.184 81.241C632.274 80.5736 632.184 79.9896 631.641 79.489C631.098 78.9884 630.646 78.5713 630.194 78.0707C629.923 77.8204 629.651 77.737 629.29 77.9038C629.109 77.9873 628.928 78.0707 628.747 78.1541C628.476 78.2375 628.385 78.4044 628.295 78.6547C628.204 78.9884 628.114 79.2387 628.023 79.5724C627.842 79.9061 627.933 80.3233 628.204 80.5736C628.566 81.1576 628.747 81.7416 628.928 82.3256C629.018 82.7428 629.199 83.1599 629.199 83.5771C629.199 84.1611 629.38 84.6616 629.47 85.2457C629.561 85.9131 629.199 86.3302 628.837 86.8308C628.837 86.9143 628.747 86.9143 628.656 86.9143C628.385 86.9143 628.204 86.9143 627.933 86.7474C627.662 86.4971 627.662 86.3302 627.842 86.08C628.204 85.6628 628.204 85.2457 628.114 84.8285C628.023 84.4114 627.933 83.9942 627.933 83.4936C627.933 83.1599 627.752 82.9096 627.662 82.6593C627.481 82.2422 627.3 81.825 627.028 81.4913C626.848 81.1576 626.667 80.9073 626.576 80.5736C626.395 80.3233 626.305 79.9896 626.395 79.6559C626.486 79.2387 626.305 79.0718 625.853 79.0718C625.31 79.1553 624.858 79.1553 624.405 79.3221C624.134 79.4056 623.953 79.6559 623.772 79.9061C623.591 80.2399 623.411 80.657 623.411 81.0742C623.411 81.6582 623.501 82.2422 623.591 82.8262C623.682 83.1599 623.863 83.4936 623.953 83.7439C624.134 84.0776 624.315 84.4114 624.496 84.7451C624.677 85.0788 624.858 85.3291 625.039 85.6628C625.129 85.8297 625.129 85.9965 625.219 86.1634C625.4 86.4971 625.581 86.9143 625.672 87.248C625.762 87.4983 625.672 87.6651 625.491 87.832C625.31 87.9154 625.129 87.9988 624.948 88.0823C624.767 88.1657 624.586 87.9988 624.496 87.832C624.315 87.4983 624.134 87.0811 623.953 86.7474C623.863 86.4137 623.772 86.08 623.591 85.8297C623.411 85.3291 623.139 84.9119 622.868 84.4114C622.687 84.1611 622.597 83.8273 622.506 83.5771C622.325 83.2433 622.054 82.8262 621.873 82.4925C621.692 82.2422 621.602 81.9919 621.692 81.6582C621.692 81.1576 621.692 80.5736 621.692 80.073C621.692 79.9896 621.602 79.9061 621.511 79.9061C621.059 79.8227 620.788 79.9061 620.788 80.4067C620.788 80.5736 620.788 80.657 620.788 80.9073C620.788 81.4913 620.697 82.1587 620.697 82.7428C620.697 83.2433 620.516 83.5771 620.335 83.9942C620.155 84.4948 619.883 84.9954 619.702 85.4959C619.521 85.8297 619.341 86.1634 619.16 86.5805C618.979 86.9977 618.798 87.3314 618.617 87.7486C618.346 88.2491 617.984 88.5829 617.351 88.6663C616.808 88.6663 616.175 88.7497 615.632 88.8331C615.27 88.8331 614.818 88.9166 614.456 89C614.004 89 613.552 89 613.19 88.9166C612.648 88.7497 612.286 88.416 611.924 88.0823C611.653 87.832 611.381 87.5817 611.2 87.3314C611.11 87.248 611.02 87.0811 611.02 86.9977C610.929 86.8308 611.11 86.5805 611.291 86.5805C611.653 86.4971 612.014 86.4971 612.286 86.664C612.648 86.8308 613.009 86.9977 613.371 87.0811C613.552 87.1645 613.733 87.0811 613.914 86.9143C614.095 86.8308 614.095 86.664 613.914 86.4971C613.462 86.1634 613.009 85.9965 612.467 85.9131C612.376 85.9131 612.195 85.8297 612.105 85.8297C611.743 85.7462 611.472 85.9131 611.2 86.08C610.929 86.1634 610.658 86.2468 610.567 85.9965C610.386 85.7462 610.296 85.5794 610.206 85.3291C610.115 85.0788 610.296 84.8285 610.658 84.7451C611.653 84.4948 612.648 84.4114 613.642 84.5782C614.095 84.6616 614.456 84.7451 614.909 84.9119C615.09 84.9954 615.361 84.9954 615.542 85.0788C615.904 85.2457 616.265 85.4125 616.627 85.5794C616.718 85.5794 616.899 85.4959 617.079 85.4125C617.17 85.3291 617.17 85.2457 617.17 85.1622C617.351 84.6616 617.441 84.2445 617.532 83.7439C617.622 83.4102 617.622 83.0765 617.713 82.7428C617.713 82.4925 617.803 82.3256 617.893 82.0753C617.984 81.7416 617.984 81.4079 618.074 81.1576C618.165 80.7404 618.436 80.4067 618.707 80.073C618.979 79.7393 619.341 79.4056 619.612 79.0718C619.793 78.905 619.793 78.5713 619.612 78.4044C619.341 77.9873 619.16 77.6535 618.888 77.2364C618.798 77.153 618.798 77.0695 618.707 76.9861C618.346 76.7358 618.074 76.5689 617.713 76.3187C617.351 76.1518 617.079 75.8181 616.899 75.4844C616.627 74.7335 616.175 74.1495 615.723 73.482C615.451 73.1483 615.27 72.8146 615.09 72.4809C614.999 72.314 614.728 72.1472 614.547 71.9803C614.456 71.8969 614.366 71.9803 614.276 71.9803C613.552 72.4809 612.919 73.0649 612.557 73.8992C612.467 74.2329 612.195 74.3998 611.834 74.4832C611.381 74.5666 610.929 74.8169 610.567 74.9838C610.206 75.1506 609.572 75.1506 609.211 74.9003C608.939 74.7335 608.668 74.5666 608.306 74.3163C607.854 74.0661 607.944 73.7323 608.306 73.5655C608.758 73.3986 609.211 73.2318 609.663 72.9815C610.025 72.8146 610.477 72.6477 610.748 72.314C610.929 72.0637 611.2 71.8969 611.381 71.73C611.472 71.6466 611.472 71.4797 611.472 71.3129C611.472 71.2294 611.291 71.146 611.11 71.146C610.748 71.0626 610.567 71.3129 610.386 71.4797C610.206 71.6466 610.115 71.8134 610.025 71.9803C609.753 72.314 609.211 72.3975 608.758 72.2306C608.578 72.1472 608.487 71.73 608.668 71.5632C608.939 71.146 609.12 70.7289 609.392 70.3951C609.753 69.978 610.025 69.5608 610.567 69.3105C611.11 69.0603 611.653 69.0603 612.195 68.9768C612.557 68.8934 612.919 68.7265 613.281 68.7265C613.733 68.6431 614.185 68.5597 614.637 68.5597C614.818 68.5597 615.09 68.6431 615.27 68.81C615.632 69.0603 615.813 69.394 616.175 69.6443C616.718 70.0614 617.17 70.6454 617.622 71.146C617.893 71.4797 618.255 71.73 618.617 72.0637C618.798 72.2306 618.888 72.3975 619.069 72.4809C619.341 72.6477 619.612 72.7312 619.883 72.5643C620.516 72.314 621.149 72.0637 621.783 71.9803C622.235 71.8969 622.687 71.8134 623.139 71.8134C623.411 71.8134 623.682 71.8969 623.863 71.8969C624.225 71.8969 624.586 71.9803 624.948 71.9803C625.491 71.9803 625.943 71.9803 626.395 72.0637C626.848 72.1472 627.209 71.8969 627.571 71.6466C627.933 71.3963 628.295 71.0626 628.656 70.8957C629.199 70.562 629.47 70.0614 629.561 69.5608C629.561 69.1437 629.742 68.7265 629.923 68.3094C630.013 68.0591 630.104 67.7254 630.104 67.4751C630.194 66.7242 630.556 66.0568 631.008 65.4728C631.189 65.3059 631.279 65.0556 631.37 64.8053C631.46 64.6385 631.551 64.4716 631.641 64.3882C631.822 64.1379 631.641 63.8876 631.46 63.7207C631.098 63.3036 630.646 62.8864 630.284 62.4693C629.561 61.8019 628.928 61.051 628.114 60.467C627.752 60.2167 627.3 60.0498 626.848 59.9664C626.486 59.883 626.124 59.7995 625.762 59.6327C625.4 59.5492 625.129 59.5492 624.767 59.3824C624.315 59.2155 623.863 59.1321 623.411 58.9652C622.958 58.7984 622.597 58.6315 622.144 58.5481C621.783 58.4647 621.511 58.2144 621.33 57.9641C621.24 57.7972 621.149 57.6304 621.059 57.4635C620.878 57.0464 620.607 56.7961 620.245 56.5458C619.702 56.2955 619.25 55.9618 618.707 55.628C618.436 55.4612 618.255 55.4612 618.074 55.7949C617.893 56.0452 617.803 56.2955 617.622 56.5458C617.351 56.8795 617.079 57.2966 616.808 57.6304C616.537 57.9641 616.446 58.3812 616.446 58.7984C616.446 59.0487 616.537 59.2155 616.537 59.4658C616.537 60.0498 616.718 60.6338 616.899 61.1344C616.989 61.4681 617.26 61.5516 617.622 61.7184C617.893 61.8019 618.165 61.9687 618.436 62.0521C618.888 62.3024 619.341 62.5527 619.793 62.7196C620.245 62.9699 620.788 63.1367 621.24 63.3036C621.421 63.387 621.602 63.5539 621.783 63.7207C622.144 64.1379 622.506 64.555 622.868 64.9722C622.958 65.0556 622.958 65.2225 622.958 65.3893C622.958 65.4728 622.777 65.5562 622.597 65.5562C622.325 65.5562 622.144 65.4728 621.873 65.3893C621.33 65.2225 620.788 65.0556 620.155 64.8888C619.793 64.8053 619.521 64.555 619.25 64.3882C618.798 64.0545 618.346 63.7207 617.713 63.5539C617.26 63.4705 616.808 63.4705 616.446 63.2202C615.904 62.8864 615.451 62.4693 615.27 61.8853C615.18 61.635 615.09 61.3847 614.909 61.1344C614.728 60.7173 614.637 60.3001 614.637 59.7995C614.637 59.299 614.547 58.7984 614.456 58.3812C614.366 57.8806 614.366 57.3801 614.637 56.8795C614.728 56.6292 614.728 56.2955 614.818 56.0452C614.909 55.7115 614.909 55.2943 615.27 55.044C615.361 54.9606 615.361 54.9606 615.451 54.8772C615.904 54.6269 616.265 54.46 616.718 54.2097C617.079 54.0429 617.441 53.7926 617.893 53.6257C618.255 53.4589 618.707 53.292 619.069 53.1251H619.16C619.793 53.1251 620.426 53.1251 621.059 53.1251C621.421 53.1251 621.783 53.292 622.235 53.2086C622.777 52.8749 623.501 53.0417 624.225 53.0417C624.586 53.0417 624.948 53.0417 625.31 53.0417C625.762 53.0417 625.943 53.292 625.943 53.6257C625.943 54.1263 625.762 54.5435 625.672 54.9606C625.581 55.5446 625.491 56.1286 625.491 56.6292C625.491 56.7961 625.581 56.9629 625.762 57.0464C626.305 57.2132 626.848 57.4635 627.39 57.6304C627.752 57.7972 628.114 57.9641 628.476 58.0475C629.018 58.2144 629.561 58.3812 630.013 58.5481C630.284 58.6315 630.465 58.7984 630.737 58.8818C631.189 59.0487 631.641 59.2155 632.093 59.3824C632.636 59.6327 633.088 59.7995 633.631 60.0498C634.354 60.3835 634.807 61.051 635.168 61.635C635.349 61.9687 635.53 62.3859 635.711 62.803C635.802 62.9699 635.711 63.1367 635.711 63.2202C635.711 63.5539 635.621 63.8876 635.53 64.2213C635.53 64.3882 635.53 64.6385 635.53 64.8888C635.621 65.2225 635.621 65.5562 635.802 65.8899C635.982 66.3071 636.254 66.6408 636.435 66.9745C636.616 67.2248 636.887 67.4751 636.887 67.8088C637.068 68.3094 636.977 68.5597 636.977 68.81Z" fill="black"/>
</svg>
